<svg width="49" height="49" viewBox="0 0 49 49" fill="none" xmlns="http://www.w3.org/2000/svg">
<path fill-rule="evenodd" clip-rule="evenodd" d="M36.2573 21.2573V24.2228H38.5391V27.7269H43.1016V24.2228H45.0981V21.2573H36.2573Z" fill="white"/>
<path fill-rule="evenodd" clip-rule="evenodd" d="M40.9409 18.9884V13.2639C25.5562 5.0866 3.90186 10.7562 3.90186 24.3313C3.90186 39.4687 25.5555 43.2485 40.9409 35.8881V29.8917C35.2427 31.7995 25.5555 31.2544 25.5555 24.4398C25.5555 17.6251 34.0109 16.6729 40.9409 18.9884ZM16.1117 26.6155C15.5413 26.6155 15.2561 26.6155 14.6856 26.3459V23.2192C14.8156 23.2846 14.9709 23.3807 16.1117 23.3807C17.2523 23.3807 18.6784 22.5722 18.6784 20.9547C18.6784 19.3371 17.3021 18.5286 16.1117 18.5286C14.9383 18.5286 13.5447 19.6067 13.5447 20.9547L13.4815 33.3622C11.9921 33.3079 10.4436 32.4723 10.1629 30.9515L10.1584 20.5458C10.1774 17.798 12.7963 15.2942 15.9849 15.2942C19.1963 15.2942 22.1 17.7202 22.1 21.0125C22.1004 24.3045 18.9636 26.6155 16.1117 26.6155Z" fill="white"/>
</svg>
