<svg width="41" height="32" viewBox="0 0 41 32" fill="none" xmlns="http://www.w3.org/2000/svg">
<path d="M23.0651 10.5156H18.7629V14.513H23.0651C24.4943 14.513 25.6571 13.6164 25.6571 12.5143C25.6571 11.4123 24.4944 10.5156 23.0651 10.5156Z" fill="white"/>
<path d="M34.9924 4.63243C26.9829 -1.54368 14.0182 -1.54461 6.00764 4.63243C-2.00191 10.8085 -2.00319 20.8057 6.00764 26.9826C14.0171 33.1587 26.9818 33.1597 34.9924 26.9826C43.0018 20.8066 43.0031 10.8094 34.9924 4.63243ZM23.0652 17.1056H18.763V18.4655H22.2101C23.1398 18.4655 23.8935 19.0467 23.8935 19.7636C23.8935 20.4806 23.1398 21.0618 22.2101 21.0618H18.763V22.4011C18.763 23.118 18.0093 23.6992 17.0795 23.6992C16.1498 23.6992 15.3961 23.118 15.3961 22.4011V21.0618H13.6593C12.7295 21.0618 11.9758 20.4806 11.9758 19.7636C11.9758 19.0467 12.7295 18.4655 13.6593 18.4655H15.3961V17.1056H13.6593C12.7295 17.1056 11.9758 16.5244 11.9758 15.8075C11.9758 15.0906 12.7295 14.5094 13.6593 14.5094H15.3961V9.21389C15.3961 8.49696 16.1498 7.91578 17.0795 7.91578H23.0652C26.3509 7.91578 29.024 9.97706 29.024 12.5107C29.024 15.0444 26.351 17.1056 23.0652 17.1056Z" fill="white"/>
</svg>
