<svg width="40" height="40" viewBox="0 0 40 40" fill="none" xmlns="http://www.w3.org/2000/svg">
<path d="M20 0C8.955 0 0 8.955 0 20C0 31.045 8.955 40 20 40C31.045 40 40 31.045 40 20C40 8.955 31.045 0 20 0ZM25 20H20V22.5H23.75C24.44 22.5 25 23.06 25 23.75C25 24.44 24.44 25 23.75 25H20V28.75C20 29.44 19.44 30 18.75 30C18.06 30 17.5 29.44 17.5 28.75V25H13.75C13.06 25 12.5 24.44 12.5 23.75C12.5 23.06 13.06 22.5 13.75 22.5H17.5V11.25C17.5 10.56 18.06 10 18.75 10H25C27.7575 10 30 12.2425 30 15C30 17.7575 27.7575 20 25 20Z" fill="white"/>
<path d="M25 12.5H20V17.5H25C26.38 17.5 27.5 16.3775 27.5 15C27.5 13.6225 26.38 12.5 25 12.5Z" fill="white"/>
</svg>
