<svg width="15" height="15" viewBox="0 0 15 15" fill="none" xmlns="http://www.w3.org/2000/svg">
<path d="M1.74692 0.504127C2.11355 0.13749 2.53852 -0.0291633 3.02181 0.00416602C3.50511 0.037497 3.89674 0.254147 4.19672 0.654114L5.89657 2.80394C6.06323 3.00392 6.17156 3.2289 6.22155 3.47888C6.27155 3.72886 6.26322 3.97051 6.19655 4.20382L5.69659 6.25366C5.62993 6.48697 5.67992 6.68695 5.84658 6.85361L8.14639 9.15342C8.31305 9.32008 8.513 9.37008 8.74633 9.30342L10.7962 8.80342C11.0295 8.73675 11.2712 8.72842 11.5211 8.77842C11.7711 8.82842 11.9961 8.93675 12.1961 9.10342L14.3459 10.8032C14.7458 11.1032 14.9625 11.4949 14.9958 11.9782C15.0292 12.4615 14.8625 12.8864 14.4958 13.2531L13.5459 14.203C13.1793 14.5697 12.7543 14.8112 12.2711 14.9279C11.7877 15.0446 11.3128 15.0196 10.8462 14.8529C8.34642 13.9863 6.15489 12.6115 4.27171 10.7282C2.38853 8.84508 1.01364 6.65362 0.147047 4.15382C-0.0196063 3.6872 -0.0446042 3.21223 0.0720529 2.72894C0.18871 2.24565 0.430357 1.82068 0.796993 1.45405L1.74692 0.504127Z" fill="#060000"/>
</svg>
