<svg width="40" height="30" viewBox="0 0 40 30" fill="none" xmlns="http://www.w3.org/2000/svg">
<path d="M19.9989 1.7396C10.3204 1.7396 2.47496 7.79022 2.47496 15.2524C2.47496 18.9547 4.4081 22.307 7.53551 24.7482C6.97878 25.2981 6.12317 26.1409 4.94943 27.3032C4.30805 27.9382 4.45685 28.8512 5.27911 29.3467C5.62417 29.5535 6.0321 29.6544 6.43874 29.6544C7.00059 29.6544 7.5586 29.4625 7.9306 29.0945C7.9306 29.0945 9.51098 27.5297 10.4692 26.586C13.2144 27.9629 16.4829 28.7691 20.0002 28.7691C23.5176 28.7691 26.7874 27.9629 29.5338 26.586C30.4908 27.5297 32.0711 29.0945 32.0711 29.0945C32.4444 29.4625 33.0024 29.6544 33.563 29.6544C33.9684 29.6544 34.3789 29.5535 34.7214 29.3467C35.5449 28.8512 35.6924 27.9362 35.051 27.3032C33.8773 26.1409 33.0217 25.2972 32.465 24.7472C35.5911 22.307 37.5229 18.9557 37.5229 15.2524C37.5229 7.79022 29.6775 1.7396 19.9989 1.7396ZM5.85122 15.2524C5.85122 9.23734 12.1997 4.34304 20.0002 4.34304C27.8033 4.34304 34.1492 9.23734 34.1492 15.2524C34.1492 21.2703 27.8046 26.1656 20.0002 26.1656C12.1971 26.1656 5.85122 21.2703 5.85122 15.2524Z" fill="white"/>
<path d="M21.1544 13.4107L21.1634 9.62231C21.1634 9.14257 20.6618 8.75384 20.0397 8.75285C19.4188 8.75186 18.9147 9.13961 18.9134 9.62033L18.9044 13.385C18.299 13.5977 17.8128 13.9765 17.5537 14.4494L9.40676 14.4375C8.78461 14.4365 8.28177 14.8262 8.28048 15.306C8.2792 15.7807 8.78077 16.1715 9.40291 16.1724L17.655 16.1833C18.0963 16.8391 18.975 17.2912 19.9999 17.2912C21.4687 17.2912 22.6527 16.3742 22.6527 15.2446C22.6514 14.4355 22.0408 13.7421 21.1544 13.4107Z" fill="white"/>
<path d="M2.0296 1.53414C-0.552622 3.51145 -0.670637 6.66881 1.67428 8.75789L11.4016 1.3185C8.7103 -0.505485 4.60926 -0.440201 2.0296 1.53414Z" fill="white"/>
<path d="M37.9733 1.53364C35.3872 -0.439707 31.2926 -0.50598 28.6 1.319L38.3248 8.75838C40.6697 6.66831 40.5529 3.51095 37.9733 1.53364Z" fill="white"/>
</svg>
